<?xml version="1.0" encoding="UTF-8"?>
<!DOCTYPE svg PUBLIC "-//W3C//DTD SVG 1.1//EN" "http://www.w3.org/Graphics/SVG/1.1/DTD/svg11.dtd">
<!-- Creator: CorelDRAW X6 -->
<svg xmlns="http://www.w3.org/2000/svg" xml:space="preserve" width="30mm" height="17mm" version="1.1" shape-rendering="geometricPrecision" text-rendering="geometricPrecision" image-rendering="optimizeQuality" fill-rule="evenodd" clip-rule="evenodd"
viewBox="0 0 3000 1700"
 xmlns:xlink="http://www.w3.org/1999/xlink">
 <g id="Layer_x0020_2">
  <metadata id="CorelCorpID_0Corel-Layer"/>
  <rect fill="none" width="3000" height="1700"/>
 </g>
 <g id="Слой_x0020_1">
  <metadata id="CorelCorpID_1Corel-Layer"/>
  <path fill="#5B5B5B" d="M785 803c190,1 345,156 344,347 0,191 -156,345 -347,344 -190,0 -345,-156 -344,-346 1,-191 156,-346 347,-345zm-1 35c172,0 311,140 311,312 -1,171 -141,310 -312,310 -172,-1 -311,-141 -310,-312 0,-172 140,-311 311,-310z"/>
  <path fill="#5B5B5B" d="M1197 1496l2 -692 376 2 -10 34 -262 -1c-39,0 -70,31 -70,69l-2 588 -34 0z"/>
  <path fill="#5B5B5B" d="M2655 42c191,1 346,156 345,347 -1,191 -156,345 -347,344 -191,0 -345,-155 -344,-346 0,-191 156,-345 346,-345zm0 35c172,0 311,140 310,312 0,172 -140,310 -312,310 -171,-1 -310,-140 -310,-312 1,-172 141,-311 312,-310z"/>
  <polygon fill="#5B5B5B" points="2076,877 2111,887 2109,1498 2074,1498 "/>
  <path fill="#5B5B5B" d="M2666 1500c1,-230 2,-461 3,-691l-301 -1 0 0 0 0 0 0 0 0 0 0 0 0 0 0 -1 0 0 0c-100,0 -181,81 -181,181 -1,87 59,160 141,177 29,-1 78,52 43,107l-145 226 42 0 231 -362 -132 -1c-81,0 -146,-66 -146,-147 0,-81 66,-147 147,-146l0 0 1 0 0 0 0 0 0 0 0 0 0 0 0 0 231 0c19,0 35,16 35,35l0 63 -1 162 0 103 -1 294 34 0z"/>
  <path fill="#5B5B5B" d="M787 36c191,1 345,156 344,347 0,6 0,12 0,17l-35 0 -310 -1 -226 0c-38,0 -69,30 -69,69 -1,10 2,20 6,29 46,114 157,196 288,196l0 35c-191,-1 -345,-156 -345,-347 1,-191 156,-345 347,-345zm-227 328l452 1c38,1 69,-30 69,-68 0,-9 -1,-17 -4,-24 0,0 0,-1 0,-2 -45,-116 -158,-200 -290,-200 -133,0 -246,82 -291,199 0,0 -1,1 -1,2 -2,7 -4,15 -4,23 0,38 31,69 69,69z"/>
  <path fill="#5B5B5B" d="M1244 478l-172 251 -44 -1 227 -330c8,-12 14,-29 13,-42 0,-13 -2,-26 -11,-39l-188 -280 44 1 130 192c2,4 4,7 7,10 13,17 33,28 56,28 22,0 42,-11 55,-27 3,-3 5,-7 8,-10l131 -192 44 0 -187 275c-13,17 -15,25 -15,42 0,17 3,26 14,43l223 331 -45 0 -169 -252c-1,-2 -2,-4 -4,-5 -12,-18 -33,-29 -56,-30 -21,0 -40,10 -53,25 -3,3 -6,6 -8,10z"/>
  <path fill="#5B5B5B" d="M0 34l10 35 163 0c38,0 69,31 69,69l-2 588 35 0 2 -587c0,-39 31,-69 69,-69l166 0 10 -34 -522 -2z"/>
  <path fill="#5B5B5B" d="M420 1493l36 0 -199 -692 -204 691 37 0 135 -452c2,-9 15,-21 32,-21 16,0 29,11 32,22l131 452z"/>
 </g>
 <g id="Layer_x0020_1" visibility="hidden">
  <metadata id="CorelCorpID_2Corel-Layer"/>
  <path fill="#244082" d="M28 1629c0,0 -2,65 0,0l1573 5 -42 65 -1533 -5 2 -65zm1775 -1628l69 20 -74 250c-10,32 10,67 43,74l1 0 261 78c31,10 64,-8 73,-40l75 -249 68 19 -201 682 -69 -20 74 -249c10,-33 -10,-67 -43,-75l0 0 -262 -78c-31,-9 -65,9 -74,40l-74 249 -68 -20 201 -681zm-23 1223l1 -1c1,-1 2,-3 3,-5l0 0 236 -367 71 20 -490 763 3 -907 70 21 -1 441c0,33 26,59 59,59 19,0 37,-9 48,-24z"/>
 </g>
</svg>
